clc = 0.2;
clp = 0.2;
r = 0.5;
lx = 1.0;
ly = 1.0;
lz = 1.0;
cx = 0.25;
cy = 0.25;
Point (1) = {cx,cy,-lz,clc};
Point (2) = {r+cx,cy,-lz,clc};
Point (4) = {-r+cx,cy,-lz,clc};
Point (6) = {cx,-r+cy,-lz,clc};
Point (7) = {cx,r+cy,-lz,clc};
Point (8) = {cx,cy,lz,clc};
Point (9) = {r+cx,cy,lz,clc};
Point (11) = {-r+cx,cy,lz,clc};
Point (13) = {cx,-r+cy,lz,clc};
Point (14) = {cx,r+cy,lz,clc};
Point (15) = {-lx,-ly,-lz,clp};
Point (16) = {+lx,-ly,-lz,clp};
Point (17) = {+lx,-ly,+lz,clp};
Point (18) = {-lx,-ly,+lz,clp};
Point (19) = {-lx,+ly,-lz,clp};
Point (20) = {+lx,+ly,-lz,clp};
Point (21) = {+lx,+ly,+lz,clp};
Point (22) = {-lx,+ly,+lz,clp};
Ellipse(9) = {2,1,7,7};
Ellipse(10) = {7,1,7,4};
Ellipse(11) = {4,1,6,6};
Ellipse(12) = {6,1,6,2};
Ellipse(13) = {11, 8, 14, 14};
Ellipse(14) = {14, 8, 9, 9};
Ellipse(15) = {9, 8, 13, 13};
Ellipse(16) = {13, 8, 11, 11};
Line(21) = {7, 14};
Line(22) = {2, 9};
Line(23) = {13, 6};
Line(24) = {11, 4};
Line(25) = {15,16};
Line(26) = {16,17};
Line(27) = {17,18};
Line(28) = {18,15};
Line(29) = {19,20};
Line(30) = {20,21};
Line(31) = {21,22};
Line(32) = {22,19};
Line(33) = {16,20};
Line(34) = {17,21};
Line(35) = {15,19};
Line(36) = {18,22};
Line Loop(25) = {-24, 13, -21, 10};
Ruled Surface(26) = {25};
Line Loop(27) = {-23, 16, 24, 11};
Ruled Surface(28) = {27};
Line Loop(29) = {22, 15, 23, 12};
Ruled Surface(30) = {29};
Line Loop(31) = {21, 14, -22, 9};
Ruled Surface(32) = {31};
Line Loop(57) = {25,26,27,28};
Plane Surface(58) = {57};
Line Loop(59) = {33,30,-34,-26};
Plane Surface(60) = {59};
Line Loop(61) = {-29,-32,-31,-30};
Plane Surface(62) = {61};
Line Loop(63) = {-35,-28,36,32};
Plane Surface(64) = {63};
Line Loop(65) = {29, -33, -25, 35};
Line Loop(66) = {9, 10, 11, 12};
Ruled Surface(67) = {65, 66};
Line Loop(68) = {31, -36, -27, 34};
Line Loop(69) = {13, 14, 15, 16};
Ruled Surface(70) = {68, 69};
Physical Surface(2) = {70};
Physical Surface(3) = {62};
Physical Surface(4) = {64};
Physical Surface(5) = {67};
Physical Surface(6) = {60};
Physical Surface(7) = {58};
Physical Surface(1) = {26, 32, 30, 28};
Surface Loop(78) = {62, 67, 60, 70, 64, 58, 28, 30, 32, 26};
Volume(79) = {78};
Physical Volume(1) = {79};
